<?xml version="1.0" encoding="UTF-8"?>
<svg id="b" data-name="Cut" xmlns="http://www.w3.org/2000/svg" width="72mm" height="28mm" viewBox="0 0 204.094 79.37">
  <rect width="204.094" height="79.37" fill="#ed2024"/>
  <rect x="22.203" y="7.086" width="162.57" height="65.028" fill="#fff" stroke="#ed2024" stroke-miterlimit="10"/>
  <rect x="111.588" y="58.196" width="1.601" height="1.601" transform="translate(233.968 95.464) rotate(169)" fill="#ed2024"/>
  <rect x="40.653" y="63.235" width=".854" height=".854" transform="translate(46.146 139.258) rotate(-151)" fill="#ed2024"/>
  <rect x="160.725" y="28.004" width=".854" height=".854" transform="translate(227.725 -121.056) rotate(104)" fill="#ed2024"/>
  <rect x="117.193" y="17.898" width="1.433" height="1.433" transform="translate(1.161 43.491) rotate(-21)" fill="#ed2024"/>
  <rect x="22.386" y="63.745" width=".854" height=".854" transform="translate(85.237 36.938) rotate(86)" fill="#ed2024"/>
  <rect x="85.143" y="7.319" width="1.086" height="1.086" transform="translate(9.185 -31.526) rotate(22)" fill="#ed2024"/>
  <rect x="107.917" y="65.104" width=".854" height=".854" transform="translate(232.275 39.567) rotate(137)" fill="#ed2024"/>
  <rect x="87.148" y="60.619" width=".858" height=".858" transform="translate(100.809 166.98) rotate(-132)" fill="#ed2024"/>
  <rect x="148.604" y="9.007" width=".854" height=".854" transform="translate(78.057 -121.951) rotate(58)" fill="#ed2024"/>
  <rect x="33.568" y="51.117" width=".874" height=".874" transform="translate(74.19 4.656) rotate(74)" fill="#ed2024"/>
  <rect x="127.628" y="9.112" width=".854" height=".854" transform="translate(33.746 96.687) rotate(-47)" fill="#ed2024"/>
  <rect x="137.278" y="44.265" width=".854" height=".854" transform="translate(85.867 179.87) rotate(-87)" fill="#ed2024"/>
  <rect x="181.097" y="50.601" width=".871" height=".871" transform="translate(2.92 -9.431) rotate(3)" fill="#ed2024"/>
  <rect x="163.488" y="42.116" width=".854" height=".854" transform="translate(144.599 210.784) rotate(-98)" fill="#ed2024"/>
  <rect x="122.795" y="7.291" width=".956" height=".956" transform="translate(246.427 -1.695) rotate(172)" fill="#ed2024"/>
  <rect x="132.479" y="7.775" width="1.77" height="1.77" transform="translate(29.086 -74.928) rotate(35)" fill="#ed2024"/>
  <rect x="61.718" y="47.661" width=".854" height=".854" transform="translate(5.367 -6.233) rotate(6)" fill="#ed2024"/>
  <rect x="159.321" y="44.025" width=".854" height=".854" transform="translate(106.996 201.655) rotate(-87)" fill="#ed2024"/>
  <rect x="78.151" y="45.777" width=".882" height=".882" transform="translate(23.14 118.592) rotate(-83)" fill="#ed2024"/>
  <rect x="96.283" y="29.443" width=".854" height=".854" transform="translate(53.672 121.482) rotate(-82)" fill="#ed2024"/>
  <rect x="22.436" y="55.014" width="1.09" height="1.09" transform="translate(77.236 81.47) rotate(138)" fill="#ed2024"/>
  <rect x="96.976" y="41.155" width="1.216" height="1.216" transform="translate(104.674 147.671) rotate(-117)" fill="#ed2024"/>
  <rect x="136.754" y="14.405" width="1.119" height="1.119" transform="translate(244.323 102.301) rotate(-147)" fill="#ed2024"/>
  <rect x="107.684" y="71.054" width=".854" height=".854" transform="translate(205.222 157.312) rotate(-172)" fill="#ed2024"/>
  <rect x="82.268" y="38.982" width=".854" height=".854" transform="translate(116.297 124.63) rotate(-137)" fill="#ed2024"/>
  <rect x="158.777" y="7.893" width="1.684" height="1.684" transform="translate(101.986 157.842) rotate(-72)" fill="#ed2024"/>
  <rect x="122.528" y="37.459" width="1.281" height="1.281" transform="translate(236.135 -24.034) rotate(134)" fill="#ed2024"/>
  <rect x="161.955" y="18.003" width="1.281" height="1.281" transform="translate(54.063 141.141) rotate(-55)" fill="#ed2024"/>
  <rect x="129.032" y="26.108" width="1.281" height="1.281" transform="translate(70.274 145.08) rotate(-75)" fill="#ed2024"/>
  <rect x="110.219" y="7.433" width="1.62" height="1.62" transform="translate(-.127 1.939) rotate(-1)" fill="#ed2024"/>
  <rect x="76.225" y="67.622" width="1.281" height="1.281" transform="translate(159.617 7.269) rotate(102)" fill="#ed2024"/>
  <rect x="34.497" y="68.97" width="2.589" height="2.589" transform="translate(11.432 -4.734) rotate(9)" fill="#ed2024"/>
  <rect x="130.622" y="30.676" width="1.376" height="1.376" transform="translate(193.786 151.042) rotate(-131)" fill="#ed2024"/>
  <rect x="57.869" y="70.464" width="1.359" height="1.359" transform="translate(62.643 -20.903) rotate(42)" fill="#ed2024"/>
  <rect x="173.346" y="33.717" width="1.281" height="1.281" transform="translate(273.594 -112.374) rotate(113)" fill="#ed2024"/>
  <rect x="97.488" y="62.092" width="2.354" height="2.354" transform="translate(-1.089 1.732) rotate(-1)" fill="#ed2024"/>
  <rect x="74.337" y="31.971" width="1.783" height="1.783" transform="translate(134.68 89.473) rotate(-160)" fill="#ed2024"/>
  <rect x="69.309" y="60.587" width="1.281" height="1.281" transform="translate(158.458 32.803) rotate(121)" fill="#ed2024"/>
  <rect x="95.343" y="69.524" width="1.326" height="1.326" transform="translate(112.905 -47.532) rotate(62)" fill="#ed2024"/>
  <rect x="80.268" y="15.953" width="1.281" height="1.281" transform="translate(52.106 -60.814) rotate(58)" fill="#ed2024"/>
  <rect x="122.439" y="68.822" width="1.281" height="1.281" transform="translate(259.307 107.086) rotate(166)" fill="#ed2024"/>
  <rect x="66.768" y="35.383" width="2.274" height="2.274" transform="translate(139.021 6.73) rotate(129)" fill="#ed2024"/>
  <rect x="63.549" y="23.213" width="1.281" height="1.281" transform="translate(28.293 -34.462) rotate(38)" fill="#ed2024"/>
  <rect x="102.172" y="30.071" width="1.281" height="1.281" transform="translate(-1.892 7.247) rotate(-4)" fill="#ed2024"/>
  <rect x="182.33" y="54.751" width="1.918" height="1.918" transform="translate(350.99 148.311) rotate(-168)" fill="#ed2024"/>
  <rect x="38.912" y="33.201" width="1.281" height="1.281" transform="translate(78.507 68.367) rotate(-179)" fill="#ed2024"/>
  <rect x="26.769" y="8.22" width="1.92" height="1.92" transform="translate(49.668 28.464) rotate(-157)" fill="#ed2024"/>
  <rect x="159.019" y="53.597" width="2.251" height="2.251" transform="translate(280.093 174.108) rotate(-154)" fill="#ed2024"/>
  <rect x="63.962" y="7.638" width="2.063" height="2.063" transform="translate(29.669 63.91) rotate(-65)" fill="#ed2024"/>
  <rect x="44.739" y="31.676" width="1.92" height="1.92" transform="translate(44.197 88.773) rotate(-124)" fill="#ed2024"/>
  <rect x="145.283" y="60.402" width="1.92" height="1.92" transform="translate(79.815 205.375) rotate(-88)" fill="#ed2024"/>
  <rect x="129.273" y="56.375" width="1.92" height="1.92" transform="translate(-3.682 9.224) rotate(-4)" fill="#ed2024"/>
  <rect x="56.298" y="9.127" width="2.328" height="2.328" transform="translate(52.218 68.431) rotate(-95)" fill="#ed2024"/>
  <rect x="141.938" y="40.503" width="3.143" height="3.143" transform="translate(54.219 -77.894) rotate(37)" fill="#ed2024"/>
  <rect x="90.209" y="8.456" width="1.92" height="1.92" transform="translate(13.354 -39.013) rotate(26)" fill="#ed2024"/>
  <rect x="31.859" y="44.897" width="1.92" height="1.92" transform="translate(34.385 102.227) rotate(-146)" fill="#ed2024"/>
  <rect x="133.087" y="22.715" width="2.022" height="2.022" transform="translate(261.263 -25.003) rotate(149)" fill="#ed2024"/>
  <rect x="119.316" y="47.711" width="1.92" height="1.92" transform="translate(162.586 -73.988) rotate(87)" fill="#ed2024"/>
  <rect x="111.567" y="18.013" width="1.92" height="1.92" transform="translate(212.88 -35.354) rotate(142)" fill="#ed2024"/>
  <rect x="57.459" y="19.795" width="1.92" height="1.92" transform="translate(46.122 -40.01) rotate(59)" fill="#ed2024"/>
  <rect x="138.725" y="7.666" width="1.92" height="1.92" transform="translate(3.033 38.836) rotate(-16)" fill="#ed2024"/>
  <rect x="24.461" y="13.663" width="2.309" height="2.309" transform="translate(24.608 -14.758) rotate(58)" fill="#ed2024"/>
  <rect x="170.715" y="57.52" width="1.92" height="1.92" transform="translate(233.142 -112.147) rotate(91)" fill="#ed2024"/>
  <rect x="60.253" y="28.162" width="1.92" height="1.92" transform="translate(-5.427 41.542) rotate(-36)" fill="#ed2024"/>
  <rect x="116.037" y="55.008" width="1.92" height="1.92" transform="translate(221.165 133.232) rotate(-169)" fill="#ed2024"/>
  <rect x="50.464" y="15.026" width="1.92" height="1.92" transform="translate(17.003 -25.429) rotate(33)" fill="#ed2024"/>
  <rect x="179.68" y="27.723" width="2.535" height="2.535" transform="translate(18.989 114.735) rotate(-37)" fill="#ed2024"/>
  <rect x="81.197" y="32.843" width="2.441" height="2.441" transform="translate(153.125 -20.28) rotate(120)" fill="#ed2024"/>
  <rect x="33.676" y="38.293" width="1.998" height="1.998" transform="translate(86.735 45.29) rotate(138)" fill="#ed2024"/>
  <rect x="141.781" y="33.829" width="1.92" height="1.92" transform="translate(110.448 178.116) rotate(-91)" fill="#ed2024"/>
  <rect x="83.536" y="21.99" width="1.92" height="1.92" transform="translate(86.323 -64.588) rotate(76)" fill="#ed2024"/>
  <rect x="53.653" y="27.637" width="2.628" height="2.628" transform="translate(26.546 -26.292) rotate(35)" fill="#ed2024"/>
  <rect x="67.531" y="53.403" width="1.92" height="1.92" transform="translate(51.148 140.069) rotate(-117)" fill="#ed2024"/>
  <rect x="69.383" y="10.455" width="2.879" height="2.879" transform="translate(138.504 35.906) rotate(-170)" fill="#ed2024"/>
  <rect x="97.333" y="33.711" width="2.912" height="2.912" transform="translate(192.556 82.11) rotate(-173)" fill="#ed2024"/>
  <rect x="144.58" y="27.79" width="2.909" height="2.909" transform="translate(266.028 117.467) rotate(-155)" fill="#ed2024"/>
  <rect x="134.907" y="67.911" width="2.937" height="2.937" transform="translate(200.953 -69.334) rotate(88)" fill="#ed2024"/>
  <rect x="165.76" y="62.25" width="2.879" height="2.879" transform="translate(265.031 213.493) rotate(-144)" fill="#ed2024"/>
  <rect x="139.535" y="19.373" width="2.879" height="2.879" transform="translate(161.787 -120.162) rotate(90)" fill="#ed2024"/>
  <rect x="88.926" y="24.694" width="2.879" height="2.879" transform="translate(175.006 -14.912) rotate(138)" fill="#ed2024"/>
  <rect x="179.602" y="42.612" width="2.879" height="2.879" transform="translate(163.751 -141.469) rotate(71)" fill="#ed2024"/>
  <rect x="179.78" y="67.411" width="3.873" height="3.873" transform="translate(11.788 163.975) rotate(-50)" fill="#ed2024"/>
  <rect x="75.719" y="58.101" width="2.879" height="2.879" transform="translate(151.094 123.037) rotate(-177)" fill="#ed2024"/>
  <rect x="81.54" y="67.225" width="3.809" height="3.809" transform="translate(-19.399 103.261) rotate(-58)" fill="#ed2024"/>
  <rect x="50.741" y="63.501" width="4.462" height="4.462" transform="translate(131.713 96.171) rotate(150)" fill="#ed2024"/>
  <rect x="152.722" y="40.744" width="2.879" height="2.879" transform="translate(103.967 193.926) rotate(-87)" fill="#ed2024"/>
  <rect x="101.325" y="67.182" width="3.165" height="3.165" transform="translate(214.383 122.537) rotate(172)" fill="#ed2024"/>
  <rect x="76.648" y="8.501" width="3.799" height="3.799" transform="translate(42.014 -59.907) rotate(55)" fill="#ed2024"/>
  <rect x="179.756" y="12.688" width="2.879" height="2.879" transform="translate(20.047 98.166) rotate(-32)" fill="#ed2024"/>
  <rect x="43.987" y="24.7" width="2.879" height="2.879" transform="translate(1.43 -2.342) rotate(3)" fill="#ed2024"/>
  <rect x="88.149" y="39.862" width="3.103" height="3.103" transform="translate(54.644 133.784) rotate(-94)" fill="#ed2024"/>
  <rect x="146.637" y="20.034" width="2.994" height="2.994" transform="translate(239.735 139.922) rotate(-136)" fill="#ed2024"/>
  <rect x="151.509" y="12.098" width="3.698" height="3.698" transform="translate(15.184 -54.032) rotate(21)" fill="#ed2024"/>
  <rect x="85.77" y="15.337" width="3.207" height="3.207" transform="translate(62.801 -68.6) rotate(63)" fill="#ed2024"/>
  <rect x="137.961" y="54.069" width="3.417" height="3.417" transform="translate(289.951 49.924) rotate(156)" fill="#ed2024"/>
  <rect x="31.082" y="17.673" width="2.879" height="2.879" transform="translate(42.004 55.623) rotate(-135)" fill="#ed2024"/>
  <rect x="91.525" y="46.474" width="2.879" height="2.879" transform="translate(61.923 147.785) rotate(-100)" fill="#ed2024"/>
  <rect x="152.83" y="28.238" width="4.102" height="4.102" transform="translate(62.265 -97.492) rotate(43)" fill="#ed2024"/>
  <rect x="127.737" y="35.735" width="2.879" height="2.879" transform="translate(222.645 -59.429) rotate(118)" fill="#ed2024"/>
  <rect x="150.725" y="65.742" width="3.44" height="3.44" transform="translate(287.532 165.145) rotate(-168)" fill="#ed2024"/>
  <rect x="112.969" y="23.686" width="2.945" height="2.945" transform="translate(127.5 -91.286) rotate(84)" fill="#ed2024"/>
  <rect x="164.994" y="29.305" width="3.191" height="3.191" transform="translate(287.453 -87.839) rotate(125)" fill="#ed2024"/>
  <rect x="54.792" y="44.792" width="3.277" height="3.277" transform="translate(19.399 109.429) rotate(-99)" fill="#ed2024"/>
  <rect x="162.89" y="11.418" width="2.944" height="2.944" transform="translate(328.465 -2.956) rotate(170)" fill="#ed2024"/>
  <rect x="122.481" y="52.534" width="3.22" height="3.22" transform="translate(182.534 -67.982) rotate(92)" fill="#ed2024"/>
  <rect x="172.037" y="26.278" width="3.432" height="3.432" transform="translate(149.724 -146.351) rotate(73)" fill="#ed2024"/>
  <rect x="157.629" y="60.022" width="2.879" height="2.879" transform="translate(244.656 -86.034) rotate(99)" fill="#ed2024"/>
  <rect x="112.315" y="67.502" width="3.798" height="3.798" transform="translate(-14.071 31.925) rotate(-15)" fill="#ed2024"/>
  <rect x="70.988" y="47.605" width="3.112" height="3.112" transform="translate(135.45 110.173) rotate(-170)" fill="#ed2024"/>
  <rect x="107.694" y="51.413" width="2.879" height="2.879" transform="translate(-10.991 36.311) rotate(-18)" fill="#ed2024"/>
  <rect x="134.807" y="36.838" width="3.186" height="3.186" transform="translate(192.373 168.62) rotate(-129)" fill="#ed2024"/>
  <rect x="27.858" y="65.828" width="2.879" height="2.879" transform="translate(81.66 118.663) rotate(158)" fill="#ed2024"/>
  <rect x="120.794" y="12.107" width="3.301" height="3.301" transform="translate(245.418 6.045) rotate(170)" fill="#ed2024"/>
  <rect x="26.066" y="57.878" width="3.674" height="3.674" transform="translate(-30.802 89.685) rotate(-92)" fill="#ed2024"/>
  <rect x="52.644" y="56.124" width="2.879" height="2.879" transform="translate(28.089 -17.021) rotate(24)" fill="#ed2024"/>
  <rect x="60.875" y="13.506" width="3.563" height="3.563" transform="translate(81.823 76.869) rotate(-121)" fill="#ed2024"/>
  <rect x="158.924" y="36.249" width="3.125" height="3.125" transform="translate(185.548 200.778) rotate(-112)" fill="#ed2024"/>
  <rect x="99.587" y="48.758" width="2.879" height="2.879" transform="translate(213.129 62.814) rotate(160)" fill="#ed2024"/>
  <rect x="131.993" y="47.503" width="3.397" height="3.397" transform="translate(57.77 169.742) rotate(-78)" fill="#ed2024"/>
  <rect x="114.43" y="39.067" width="2.92" height="2.92" transform="translate(-4.913 18.628) rotate(-9)" fill="#ed2024"/>
  <rect x="154.896" y="47.588" width="2.947" height="2.947" transform="translate(258.21 -79.339) rotate(111)" fill="#ed2024"/>
  <rect x="47.866" y="7.916" width="3.277" height="3.277" transform="translate(84.479 -26.759) rotate(123)" fill="#ed2024"/>
  <rect x="102.437" y="40.194" width="4.82" height="4.82" transform="translate(187.77 -34.414) rotate(115)" fill="#ed2024"/>
  <rect x="176.568" y="58.34" width="3.182" height="3.182" transform="translate(365.292 42.217) rotate(156)" fill="#ed2024"/>
  <rect x="133.491" y="60.286" width="3.049" height="3.049" transform="translate(189.676 -76.256) rotate(87)" fill="#ed2024"/>
  <rect x="68.215" y="65.898" width="3.529" height="3.529" transform="translate(18.345 150.181) rotate(-102)" fill="#ed2024"/>
  <rect x="168.106" y="39.689" width="3.288" height="3.288" transform="translate(201.034 213.218) rotate(-114)" fill="#ed2024"/>
  <rect x="82.167" y="54.425" width="3.487" height="3.487" transform="translate(-12.011 87.71) rotate(-52)" fill="#ed2024"/>
  <rect x="46.243" y="47.247" width="3.397" height="3.397" transform="translate(105.784 12.227) rotate(102)" fill="#ed2024"/>
  <rect x="60.65" y="63.589" width="3.139" height="3.139" transform="translate(148.524 39.301) rotate(117)" fill="#ed2024"/>
  <rect x="75.974" y="25.291" width="2.914" height="2.914" transform="translate(155.796 2.875) rotate(144)" fill="#ed2024"/>
  <rect x="42.595" y="16.402" width="3.896" height="3.896" transform="translate(43.375 66.511) rotate(-111)" fill="#ed2024"/>
  <rect x="144.35" y="47.603" width="3.251" height="3.251" transform="translate(68.103 -83.693) rotate(41)" fill="#ed2024"/>
  <rect x="24.507" y="33.993" width="3.18" height="3.18" transform="translate(.949 71.843) rotate(-109)" fill="#ed2024"/>
  <rect x="158.982" y="67.048" width="3.218" height="3.218" transform="translate(335.121 75.203) rotate(159)" fill="#ed2024"/>
  <rect x="103.886" y="10.111" width="3.222" height="3.222" transform="translate(58.4 106.847) rotate(-70)" fill="#ed2024"/>
  <rect x="71.513" y="17.36" width="4.305" height="4.305" transform="translate(42.471 -50.016) rotate(51)" fill="#ed2024"/>
  <rect x="164.508" y="47.913" width="4.866" height="4.866" transform="translate(322.003 -29.406) rotate(136)" fill="#ed2024"/>
  <rect x="90.414" y="64.411" width="2.879" height="2.879" transform="translate(18.659 -20.265) rotate(14)" fill="#ed2024"/>
  <rect x="155.436" y="20.299" width="3.473" height="3.473" transform="translate(59.419 -102.997) rotate(44)" fill="#ed2024"/>
  <rect x="74.032" y="37.978" width="4.189" height="4.189" transform="translate(122.681 -32.272) rotate(95)" fill="#ed2024"/>
  <rect x="116.793" y="60.861" width="3.066" height="3.066" transform="translate(-5.874 12.71) rotate(-6)" fill="#ed2024"/>
  <rect x="104.285" y="20.824" width="4.121" height="4.121" transform="translate(182.107 -55.174) rotate(122)" fill="#ed2024"/>
  <rect x="48.847" y="35.715" width="4.341" height="4.341" transform="translate(43.931 -25.264) rotate(47)" fill="#ed2024"/>
  <rect x="142.238" y="66.285" width="3.943" height="3.943" transform="translate(300.077 102.323) rotate(167)" fill="#ed2024"/>
  <rect x="107.476" y="29.735" width="3.791" height="3.791" transform="translate(85.953 -79.789) rotate(62)" fill="#ed2024"/>
  <rect x="64.576" y="41.489" width="2.879" height="2.879" transform="translate(-6.451 12.116) rotate(-10)" fill="#ed2024"/>
  <rect x="95.645" y="10.605" width="3.778" height="3.778" transform="translate(139.556 -76.406) rotate(108)" fill="#ed2024"/>
  <rect x="173.997" y="47.381" width="3.203" height="3.203" transform="translate(284.257 -97.399) rotate(111)" fill="#ed2024"/>
  <rect x="91.621" y="56.877" width="3.342" height="3.342" transform="translate(195.334 100.006) rotate(170)" fill="#ed2024"/>
  <rect x="33.565" y="61.498" width="2.935" height="2.935" transform="translate(82.39 117.271) rotate(168)" fill="#ed2024"/>
  <rect x="103.854" y="59.218" width="2.939" height="2.939" transform="translate(209.463 -2.009) rotate(119)" fill="#ed2024"/>
  <rect x="66.339" y="27.187" width="2.925" height="2.925" transform="translate(116 -26.98) rotate(108)" fill="#ed2024"/>
  <rect x="37.696" y="46.293" width="3.991" height="3.991" transform="translate(-4.83 4.413) rotate(-6)" fill="#ed2024"/>
  <rect x="59.806" y="56.176" width="3.12" height="3.12" transform="translate(97.966 133.63) rotate(-159)" fill="#ed2024"/>
  <rect x="149.155" y="53.566" width="4.487" height="4.487" transform="translate(261.927 -61.747) rotate(113)" fill="#ed2024"/>
  <rect x="24.688" y="20.929" width="2.946" height="2.946" transform="translate(25.304 -12.03) rotate(48)" fill="#ed2024"/>
  <rect x="94.89" y="19.772" width="3.888" height="3.888" transform="translate(-2.205 15.416) rotate(-9)" fill="#ed2024"/>
  <rect x="36.54" y="54.674" width="3.196" height="3.196" transform="translate(105.961 60.863) rotate(128)" fill="#ed2024"/>
  <rect x="35.524" y="11.877" width="3.116" height="3.116" transform="translate(26.93 51.546) rotate(-95)" fill="#ed2024"/>
  <rect x="26.635" y="49.689" width="3.092" height="3.092" transform="translate(-28.35 66.184) rotate(-76)" fill="#ed2024"/>
  <rect x="24.207" y="41.689" width="3.799" height="3.799" transform="translate(76.729 39.232) rotate(116)" fill="#ed2024"/>
  <rect x="50.222" y="21.019" width="3.12" height="3.12" transform="translate(106.945 10.409) rotate(144)" fill="#ed2024"/>
  <rect x="168.593" y="19.598" width="2.879" height="2.879" transform="translate(315.412 -69.619) rotate(141)" fill="#ed2024"/>
  <rect x="39.839" y="38.182" width="3.594" height="3.594" transform="translate(73.211 88.299) rotate(-167)" fill="#ed2024"/>
  <rect x="171.113" y="66.943" width="3.544" height="3.544" transform="translate(13.962 165.433) rotate(-53)" fill="#ed2024"/>
  <rect x="142.813" y="11.709" width="2.911" height="2.911" transform="translate(258.093 102.78) rotate(-147)" fill="#ed2024"/>
  <rect x="118.851" y="30.898" width="3.219" height="3.219" transform="translate(62.081 -77.761) rotate(47)" fill="#ed2024"/>
  <rect x="112.307" y="45.928" width="2.949" height="2.949" transform="translate(40.261 146.337) rotate(-76)" fill="#ed2024"/>
  <rect x="83.429" y="46.282" width="3.691" height="3.691" transform="translate(151.504 120.251) rotate(-162)" fill="#ed2024"/>
  <rect x="177.978" y="35.575" width="2.962" height="2.962" transform="translate(-3.411 25.336) rotate(-8)" fill="#ed2024"/>
  <rect x="122.341" y="24.085" width="2.915" height="2.915" transform="translate(242.838 68.065) rotate(-172)" fill="#ed2024"/>
  <rect x="125.956" y="63.446" width="3.325" height="3.325" transform="translate(2.278 134.501) rotate(-56)" fill="#ed2024"/>
  <rect x="147.704" y="35.227" width="3.122" height="3.122" transform="translate(221.804 172.329) rotate(-132)" fill="#ed2024"/>
  <rect x="178.743" y="19.816" width="3.188" height="3.188" transform="translate(357.819 -17.058) rotate(161)" fill="#ed2024"/>
  <rect x="129.058" y="13.252" width="3.671" height="3.671" transform="translate(228.154 -73.801) rotate(131)" fill="#ed2024"/>
  <rect x="29.136" y="28.049" width="3.169" height="3.169" transform="translate(61.955 58.727) rotate(179)" fill="#ed2024"/>
  <rect x="88.993" y="31.868" width="3.18" height="3.18" transform="translate(176.414 77.706) rotate(-173)" fill="#ed2024"/>
  <rect x="41.545" y="67.592" width="3.297" height="3.297" transform="translate(116.57 33.521) rotate(96)" fill="#ed2024"/>
  <rect x="170.414" y="11.027" width="4.426" height="4.426" transform="translate(29.748 -84.54) rotate(30)" fill="#ed2024"/>
  <rect x="36.332" y="25.552" width="3.393" height="3.393" transform="translate(68.954 62.353) rotate(-167)" fill="#ed2024"/>
  <rect x="58.401" y="37.669" width="2.984" height="2.984" transform="translate(65.907 110.468) rotate(-128)" fill="#ed2024"/>
  <rect x="136.212" y="27.902" width="3.602" height="3.602" transform="translate(273.617 68.962) rotate(-176)" fill="#ed2024"/>
  <rect x="124.273" y="43.624" width="3.049" height="3.049" fill="#ed2024"/>
  <rect x="44.091" y="56.05" width="4.079" height="4.079" transform="translate(36.507 -15.462) rotate(31)" fill="#ed2024"/>
  <rect x="113.613" y="11.614" width="2.888" height="2.888" transform="translate(80.188 -97.363) rotate(66)" fill="#ed2024"/>
  <path d="M121.404,62.166c.151-.452.438-1.056.757-1.607.493-.854.967-1.314,1.538-1.499.456-.153.979-.084,1.456.192.817.472,1.062,1.299.906,2.078l.027.016c.441-.382,1.046-.412,1.773-.188.979.296,1.661.494,1.974.503l-.477.826c-.233,0-.845-.169-1.717-.44-.96-.309-1.472-.164-1.918.545l-.435.753,2.68,1.548-.461.799-6.104-3.524ZM124.683,62.994l.472-.817c.493-.854.337-1.666-.369-2.074-.799-.461-1.482-.084-1.978.755-.223.386-.345.682-.382.832l2.258,1.304Z" fill="#ed2024"/>
  <path d="M100.859,64.021l7.337,3.578-.462.947-7.337-3.578.462-.947Z" fill="#ed2024"/>
  <path d="M151.345,59.393l8.332,2.856-.703.933-4.079-1.441c-1.12-.393-2.12-.758-3.038-1.17l-.015.02c.632.771,1.266,1.685,1.914,2.641l2.452,3.621-.695.923-4.885-7.431.718-.953Z" fill="#ed2024"/>
  <path d="M34.866,11.148l4.286,6.58-1.006.27-2.074-3.251c-.571-.89-1.073-1.696-1.492-2.489l-.022.006c.021.889-.035,1.878-.105,2.906l-.265,3.889-.995.267.646-7.901,1.027-.275Z" fill="#ed2024"/>
  <path d="M33.908,47.173l1.505,1.054c.596.394.976.652,1.355.935l.02-.009c.008-.463.029-.897.102-1.625l.116-1.798.968-.451-.455,4.23,3.419,2.329-.978.456-1.574-1.128c-.44-.313-.778-.556-1.114-.824l-.029.014c-.003.473-.028.85-.076,1.378l-.177,1.945-.968.451.503-4.1-3.593-2.401.978-.456Z" fill="#ed2024"/>
  <path d="M51.282,16.261l-.167-3.192-3.691.193.167,3.192-.995.052-.4-7.63.995-.052.187,3.577,3.691-.193-.187-3.577.985-.052.4,7.63-.985.052Z" fill="#ed2024"/>
  <path d="M155.188,15.671c.003.864-.025,1.718-.079,2.473-.011.136-.022.272.009.387.327,1.433-.394,2.929-2.318,3.444s-3.461-.327-3.894-1.941c-.435-1.623.542-3.015,2.306-3.488,1.534-.411,2.708.034,3.32.935l.035-.009c-.008-.635-.04-1.32-.087-1.85l.707.048ZM151.466,17.352c-1.197.321-2.263,1.272-1.924,2.54.349,1.304,1.726,1.619,3.018,1.264,1.271-.331,2.227-1.338,1.903-2.544-.33-1.233-1.633-1.626-2.998-1.26Z" fill="#ed2024"/>
  <path d="M168.091,37.016l-2.817,1.9,2.197,3.257,2.817-1.9.593.878-6.733,4.542-.593-.878,3.157-2.129-2.197-3.257-3.157,2.129-.587-.87,6.733-4.542.587.87Z" fill="#ed2024"/>
  <path d="M51.516,32.819l1.645-1.38c.625-.554,1.032-.904,1.466-1.247l-.004-.025c-.521-.149-1.004-.304-1.805-.607l-1.996-.675-.217-1.229,4.639,1.793,3.665-3.156.219,1.242-1.75,1.437c-.486.403-.864.71-1.267,1.009l.007.037c.533.147.951.289,1.534.503l2.142.789.217,1.229-4.477-1.808-3.798,3.332-.219-1.242Z" fill="#ed2024"/>
  <path d="M69.137,20.316c.959.221,2.113.486,2.955.738l.009-.03c-.728-.459-1.492-.982-2.329-1.592l-2.945-2.14.19-.663,3.542-.171c1.047-.048,2-.069,2.859-.029l.006-.02c-.839-.262-1.961-.638-2.959-.989l-2.854-1.014.239-.835,6.642,2.417-.32,1.116-3.609.216c-.915.042-1.726.06-2.479.029l-.009.03c.635.367,1.31.822,2.078,1.369l2.932,2.147-.32,1.116-6.898-1.521.245-.855,3.026.682Z" fill="#ed2024"/>
  <path d="M72.509,70.164l.261-3.738-2.43-5.267,1.294.091,1.071,2.519c.294.69.517,1.245.749,1.878l.027.002c.288-.558.629-1.112,1.016-1.755l1.438-2.343,1.294.091-3.308,4.852-.262,3.752-1.149-.08Z" fill="#ed2024"/>
  <path d="M122.532,47.364c.359.113.96.459,1.581,1.059,1.438,1.389,1.643,3.343.028,5.015-1.542,1.597-3.67,1.634-5.252.107-.636-.614-.906-1.138-.992-1.397l.678-.384c.133.362.401.796.825,1.206,1.196,1.155,2.729,1.158,4.022-.182,1.206-1.249,1.262-2.746.021-3.944-.401-.387-.89-.699-1.28-.826l.368-.654Z" fill="#ed2024"/>
  <path d="M137.464,8.079c.844.654,1.653,1.33,2.348,1.958.124.114.248.229.383.286,1.644.771,2.551,2.611,1.59,4.876s-2.951,3.121-4.85,2.314c-1.911-.811-2.523-2.82-1.642-4.897.767-1.806,2.093-2.61,3.435-2.521l.018-.042c-.624-.475-1.316-.965-1.866-1.322l.584-.651ZM136.27,12.981c-.598,1.409-.483,3.17,1.009,3.804,1.535.652,2.889-.449,3.526-1.977.644-1.489.391-3.185-1.028-3.787-1.452-.616-2.824.353-3.507,1.961Z" fill="#ed2024"/>
  <path d="M87.071,51.062l3.489-6.295.887.492.252,4.303c.058.996.055,1.862-.004,2.672h.024c.391-.881.798-1.657,1.341-2.638l1.46-2.634.766.424-3.489,6.295-.822-.456-.228-4.302c-.05-.944-.072-1.896-.012-2.754l-.033-.006c-.393.82-.794,1.586-1.374,2.633l-1.491,2.69-.766-.424Z" fill="#ed2024"/>
  <path d="M140.695,47.735l-.251,7.193-1.014-.035-2.178-3.72c-.504-.862-.894-1.634-1.21-2.382l-.021.01c.052.963.042,1.839.003,2.96l-.105,3.009-.875-.031.251-7.193.939.033,2.156,3.729c.473.818.925,1.657,1.261,2.448l.033-.01c-.022-.909-.013-1.774.029-2.969l.107-3.074.875.031Z" fill="#ed2024"/>
  <path d="M57.945,48.666l-1.177-2.772-3.205,1.36,1.177,2.772-.864.367-2.812-6.625.864-.367,1.319,3.106,3.205-1.36-1.319-3.106.856-.363,2.812,6.625-.856.363Z" fill="#ed2024"/>
  <path d="M59.625,15.043c-.529.022-1.204.199-1.779.587-.853.575-1.048,1.362-.608,2.014.407.604.985.715,2.083.463,1.306-.337,2.326-.231,2.94.68.679,1.006.35,2.316-.906,3.162-.661.446-1.244.616-1.641.647l-.229-.836c.288-.027.849-.126,1.433-.521.882-.595.861-1.348.564-1.788-.407-.604-1-.636-2.124-.38-1.377.315-2.289.163-2.929-.786-.672-.996-.516-2.357,1.008-3.385.623-.42,1.426-.697,1.926-.699l.261.842Z" fill="#ed2024"/>
  <path d="M152.532,53.673l-7.566.275.277-.965,3.717-.1c1.019-.03,1.935-.045,2.798.003l.006-.021c-.745-.424-1.535-.962-2.35-1.529l-3.083-2.15.274-.955,6.209,4.458-.283.985Z" fill="#ed2024"/>
  <path d="M100.342,49.682l-2.258.765-.578-.767,7.219-2.379.675.896-4.27,6.293-.598-.794,1.345-1.976-1.536-2.038ZM102.342,51.13l1.231-1.809c.278-.411.556-.753.824-1.089l-.013-.017c-.406.172-.826.342-1.259.495l-2.087.69,1.305,1.731Z" fill="#ed2024"/>
  <path d="M179.97,15.157c-2.056,1.236-3.897.641-4.814-.884-.948-1.578-.391-3.421,1.418-4.507,1.897-1.14,3.846-.706,4.805.889.98,1.631.364,3.437-1.409,4.502ZM177.088,10.58c-1.276.767-2.004,2.145-1.274,3.36.735,1.223,2.276,1.238,3.632.423,1.188-.714,2.056-2.079,1.284-3.365-.767-1.276-2.329-1.207-3.641-.418Z" fill="#ed2024"/>
  <path d="M90.043,30.535l-7.468,1.05-.148-1.053,3.442-2.925c.797-.677,1.523-1.22,2.238-1.682l-.014-.02c-.985.229-1.89.378-3.054.541l-3.124.439-.128-.909,7.468-1.05.137.975-3.456,2.904c-.758.637-1.541,1.256-2.297,1.747l.016.032c.934-.188,1.828-.336,3.069-.51l3.191-.448.128.909Z" fill="#ed2024"/>
  <path d="M62.644,36.271c-.981.086-2.16.19-3.038.211v.031c.835.211,1.723.473,2.708.794l3.462,1.125.024.689-3.316,1.257c-.981.369-1.881.684-2.71.911v.021c.879-.01,2.063.001,3.121.027l3.028.083.03.868-7.063-.246-.041-1.16,3.366-1.321c.858-.323,1.623-.59,2.348-.794v-.031c-.718-.153-1.501-.377-2.4-.659l-3.452-1.136-.041-1.16,7.031-.685.031.889-3.088.286Z" fill="#ed2024"/>
  <path d="M129.645,47.562l-4.458-6.119.955-.31,2.162,3.026c.595.828,1.119,1.579,1.562,2.321l.021-.007c-.065-.855-.061-1.81-.046-2.803l.059-3.758.944-.307-.224,7.64-.975.317Z" fill="#ed2024"/>
  <path d="M81.855,50.45c.457.162,1.038.406,1.734.792.857.475,1.373,1.021,1.573,1.601.191.523.14,1.131-.191,1.729-.337.607-.78.986-1.312,1.146-.727.234-1.613.069-2.458-.4-.259-.144-.493-.286-.664-.446l-1.49,2.688-.866-.48,3.675-6.63ZM80.929,54.165c.161.155.389.307.678.467,1.046.58,1.964.425,2.477-.501.491-.886.101-1.662-.855-2.191-.379-.21-.684-.34-.855-.383l-1.446,2.608Z" fill="#ed2024"/>
  <path d="M99.719,16.717c.421-.218.903-.617,1.223-1.15.475-.79.335-1.502-.269-1.865-.559-.336-1.071-.208-1.867.413-.933.768-1.802,1.068-2.645.561-.932-.56-1.161-1.748-.462-2.911.368-.612.777-.971,1.087-1.147l.502.592c-.224.131-.641.424-.967.966-.491.817-.189,1.42.22,1.666.559.336,1.053.138,1.868-.496.999-.777,1.797-.999,2.675-.471.923.555,1.311,1.718.463,3.13-.347.577-.894,1.106-1.299,1.297l-.531-.584Z" fill="#ed2024"/>
  <path d="M88.092,10.699c2.486,0,3.805,1.511,3.805,3.355,0,1.908-1.479,3.247-3.665,3.247-2.294,0-3.794-1.426-3.794-3.355,0-1.972,1.511-3.247,3.655-3.247ZM88.21,16.304c1.543,0,2.926-.836,2.926-2.305,0-1.479-1.361-2.314-3.001-2.314-1.436,0-2.937.75-2.937,2.304,0,1.543,1.425,2.315,3.012,2.315Z" fill="#ed2024"/>
  <path d="M118.767,13.971l.032.929-6.414.224.107,3.074-.779.027-.14-4.002,7.193-.251Z" fill="#ed2024"/>
  <path d="M27.382,68.898l-.052-.987,3.687-.193-.002-.034c-.306-.189-.589-.379-.849-.559l-2.992-2.187-.064-1.225,3.39,2.598,4.245-3.214.061,1.168-3.623,2.715.877.682,2.916-.153.052.987-7.646.401Z" fill="#ed2024"/>
  <path d="M69.493,57.09l-.921-.247,1.279-4.775c.508-1.895,1.596-2.227,2.824-1.898.339.091.732.276.939.433l-.339.715c-.171-.125-.429-.263-.735-.345-.826-.221-1.412.019-1.787,1.416l-1.259,4.701Z" fill="#ed2024"/>
  <path d="M116.652,56.702c.362.368.805.944,1.18,1.522.583.897.794,1.581.691,2.224-.076.516-.401.987-.902,1.312-.858.557-1.777.386-2.453-.148l-.029.019c.152.614-.117,1.214-.691,1.806-.769.8-1.294,1.362-1.458,1.66l-.563-.867c.114-.226.579-.733,1.27-1.442.771-.775.883-1.341.417-2.121l-.513-.79-2.815,1.828-.545-.839,6.41-4.163ZM114.237,59.463l.557.858c.582.896,1.443,1.146,2.185.664.839-.545.811-1.39.244-2.283-.263-.405-.489-.669-.615-.779l-2.372,1.54Z" fill="#ed2024"/>
  <path d="M122.802,41.292l-3.429-.543-5.057,1.817.188-1.187,2.411-.785c.661-.216,1.191-.377,1.794-.54l.004-.024c-.492-.311-.976-.67-1.537-1.079l-2.047-1.516.188-1.187,4.211,3.445,3.441.545-.167,1.054Z" fill="#ed2024"/>
  <path d="M140.829,25.118c.328-.283.994-.796,1.884-1.138.996-.382,1.914-.443,2.794-.075.777.329,1.466,1.073,1.859,2.099.744,1.967-.053,3.92-2.26,4.767-.762.292-1.421.355-1.757.327l-.061-.772c.411.021.9-.021,1.564-.276,1.602-.615,2.264-2.012,1.631-3.662-.641-1.67-2.026-2.27-3.559-1.682-.557.214-.908.438-1.066.611l.754,1.963,1.338-.514.262.683-2.169.832-1.215-3.164Z" fill="#ed2024"/>
  <path d="M49.561,66.678c-.306-.358-.714-1.124-.976-2.172-.605-2.427.472-4.636,3.295-5.34,2.695-.672,4.977.699,5.642,3.369.268,1.073.207,1.808.126,2.139l-.973-.042c.099-.472.103-1.11-.076-1.826-.503-2.018-2.128-3.038-4.388-2.474-2.108.525-3.159,2.077-2.637,4.171.169.677.482,1.331.81,1.725l-.824.45Z" fill="#ed2024"/>
  <path d="M162.255,24.847l.363,4.145,3.844-.336-.404-4.619,1.155-.101.525,5.995-10.661.933-.504-5.758,1.155-.101.383,4.382,3.369-.295-.363-4.145,1.139-.1Z" fill="#ed2024"/>
  <path d="M44.026,43.114c-.223-.359-.508-.95-.734-1.573-.324-.889-.378-1.517-.187-2.072.135-.454.466-.818,1.008-1.015.664-.242,1.406-.014,1.936.614l.02-.007c-.075-.713.188-1.677,1.21-2.049.593-.216,1.128-.144,1.591.08.614.32,1.101,1.023,1.51,2.147.223.613.353,1.097.421,1.409l-6.774,2.466ZM46.522,41.198l-.294-.807c-.342-.94-1.033-1.313-1.697-1.072-.807.294-.901,1.022-.574,1.921.149.409.265.633.348.765l2.217-.807ZM49.823,39.997c-.033-.185-.115-.444-.231-.76-.335-.92-.98-1.645-1.982-1.281-.94.342-1.034,1.29-.681,2.261l.268.735,2.626-.956Z" fill="#ed2024"/>
  <path d="M94.515,56.54l-.289,8.62-1.075-.391.182-4.232c.047-1.161.103-2.202.226-3.18l-.023-.008c-.541.813-1.215,1.668-1.925,2.549l-2.689,3.332-1.063-.387,5.56-6.702,1.097.399Z" fill="#ed2024"/>
  <path d="M133.505,64.379l3.925-1.586c1.485-.6,1.849-1.514,1.491-2.399-.397-.984-1.301-1.351-2.767-.759l-3.925,1.586-.35-.866,3.866-1.562c2.036-.823,3.306-.088,3.886,1.348.549,1.358.185,2.694-1.871,3.525l-3.905,1.578-.35-.866Z" fill="#ed2024"/>
  <path d="M88.895,42.84l-.928.338-1.75-4.809c-.695-1.908.031-2.836,1.268-3.287.341-.124.784-.201,1.054-.19l.137.808c-.219-.005-.519.032-.828.144-.832.303-1.186.855-.674,2.262l1.723,4.734Z" fill="#ed2024"/>
  <path d="M103.883,31.51c-.381.262-.896.573-1.584.894-.847.395-1.558.487-2.118.316-.511-.145-.952-.526-1.227-1.117-.28-.6-.323-1.155-.149-1.656.227-.693.851-1.283,1.687-1.673.256-.12.497-.22.717-.262l-1.239-2.657.857-.399,3.056,6.555ZM101.535,28.711c-.21.038-.455.128-.741.261-1.034.482-1.429,1.278-1.003,2.193.408.876,1.226,1.01,2.171.569.374-.175.646-.337.775-.445l-1.202-2.578Z" fill="#ed2024"/>
  <path d="M27.378,27.15l4.169-.438c1.578-.166,2.173-.936,2.074-1.877-.11-1.045-.87-1.641-2.427-1.477l-4.169.438-.097-.92,4.107-.432c2.163-.227,3.171.819,3.331,2.344.152,1.442-.56,2.615-2.744,2.845l-4.148.436-.097-.92Z" fill="#ed2024"/>
  <path d="M163.158,8.393l-2.633,3.495c-.997,1.323-.832,2.325-.044,2.919.876.66,1.872.504,2.855-.801l2.633-3.495.771.581-2.594,3.442c-1.366,1.813-2.882,1.838-4.161.874-1.209-.911-1.598-2.289-.219-4.12l2.62-3.477.771.581Z" fill="#ed2024"/>
  <path d="M104.615,41.143c-1.21,2.096-3.125,2.472-4.679,1.574-1.608-.928-2.018-2.827-.953-4.67,1.116-1.934,3.048-2.504,4.674-1.566,1.663.96,2.002,2.854.959,4.661ZM99.832,38.515c-.751,1.301-.719,2.873.519,3.588,1.247.72,2.613-.021,3.411-1.403.699-1.211.797-2.84-.513-3.597-1.301-.751-2.645.075-3.417,1.412Z" fill="#ed2024"/>
  <path d="M172.556,34.676c.275-.417.937-1.057,1.929-1.629,2.298-1.327,4.864-.874,6.407,1.798,1.473,2.551.742,5.278-1.785,6.737-1.016.587-1.783.739-2.144.754l-.241-1.005c.51-.037,1.162-.22,1.839-.611,1.91-1.103,2.475-3.057,1.239-5.197-1.152-1.995-3.041-2.614-5.024-1.469-.641.37-1.217.88-1.521,1.33l-.699-.709Z" fill="#ed2024"/>
  <path d="M40.376,64.167l-3.497-7.827,1.131-.119,1.682,3.86c.464,1.058.868,2.012,1.184,2.939l.024-.003c.13-.962.359-2.019.609-3.116l.95-4.148,1.118-.118-2.046,8.409-1.154.121Z" fill="#ed2024"/>
  <path d="M158.877,47.1c.36-.087,1.043-.099,1.871.092,1.918.443,3.081,1.987,2.566,4.217-.492,2.129-2.267,3.239-4.376,2.752-.848-.196-1.341-.501-1.545-.675l.377-.667c.296.238.742.468,1.307.599,1.594.368,2.889-.407,3.301-2.192.384-1.665-.327-2.956-1.982-3.338-.535-.123-1.105-.138-1.498-.048l-.021-.738Z" fill="#ed2024"/>
  <path d="M39.205,35.728l-2.278.401c-.881.18-1.449.288-2.039.374l-.009.026c.406.419.773.824,1.357,1.538l1.498,1.704-.46,1.263-3.361-4.171-5.118.971.465-1.277,2.406-.398c.67-.114,1.188-.197,1.725-.259l.014-.038c-.418-.424-.732-.781-1.16-1.295l-1.574-1.889.46-1.263,3.202,4.098,5.337-1.062-.465,1.277Z" fill="#ed2024"/>
  <path d="M143.185,45.162c-.275-.695-.554-1.532-.77-2.469-.392-1.699-.278-2.999.285-3.972.559-.988,1.509-1.708,2.989-2.05,1.494-.345,2.824-.165,3.863.496,1.053.659,1.841,1.964,2.252,3.744.195.843.317,1.558.387,2.172l-9.005,2.079ZM151.007,42.111c-.015-.311-.101-.749-.208-1.211-.583-2.526-2.312-3.571-4.785-3.001-2.163.484-3.252,2.024-2.676,4.523.141.612.302,1.061.442,1.358l7.226-1.668Z" fill="#ed2024"/>
  <path d="M163.291,70.855c-.324-.263-.779-.723-1.19-1.231-.588-.726-.84-1.294-.84-1.873-.02-.467.172-.913.614-1.27.542-.439,1.307-.465,2.003-.049l.017-.013c-.299-.642-.363-1.625.471-2.3.484-.392,1.006-.496,1.51-.436.676.101,1.356.601,2.098,1.518.405.5.682.91.845,1.179l-5.528,4.476ZM165.004,68.266l-.533-.658c-.621-.767-1.386-.893-1.928-.454-.659.534-.512,1.243.082,1.976.27.334.45.505.57.602l1.809-1.465ZM167.698,66.085c-.09-.162-.25-.377-.459-.635-.608-.751-1.443-1.22-2.26-.558-.767.621-.551,1.536.091,2.328l.486.6,2.143-1.735Z" fill="#ed2024"/>
  <path d="M72,25.971c-.431.885-.95,1.951-1.385,2.715l.028.015c.611-.607,1.294-1.233,2.077-1.913l2.749-2.39.604.335-.631,3.492c-.189,1.032-.383,1.966-.615,2.794l.019.01c.444-.759,1.064-1.768,1.631-2.662l1.631-2.555.76.421-3.851,5.932-1.016-.563.602-3.568c.165-.902.33-1.696.53-2.423l-.028-.015c-.501.536-1.096,1.092-1.802,1.718l-2.753,2.375-1.016-.563,3.036-6.384.778.431-1.346,2.797Z" fill="#ed2024"/>
  <path d="M173.885,22.655l3.135.33.306-2.908-3.494-.367.092-.873,4.535.477-.848,8.064-4.356-.458.092-.873,3.314.348.268-2.549-3.135-.33.091-.861Z" fill="#ed2024"/>
  <path d="M43.985,19.74l.679,7.756-1.094.096-2.829-3.707c-.655-.859-1.175-1.636-1.613-2.398l-.021.014c.182,1.027.287,1.969.393,3.178l.284,3.245-.944.083-.679-7.756,1.013-.089,2.807,3.72c.616.816,1.212,1.657,1.677,2.463l.034-.015c-.144-.973-.248-1.903-.36-3.192l-.29-3.314.944-.083Z" fill="#ed2024"/>
  <path d="M172.904,58.782c-2.74,1.107-4.865.029-5.686-2.003-.849-2.102.184-4.237,2.593-5.21,2.528-1.021,4.816-.118,5.674,2.007.878,2.173-.219,4.251-2.582,5.206ZM170.279,52.658c-1.701.687-2.852,2.224-2.198,3.842.659,1.63,2.53,1.944,4.337,1.214,1.583-.64,2.902-2.133,2.21-3.846-.687-1.7-2.601-1.917-4.349-1.21Z" fill="#ed2024"/>
  <path d="M68.22,44.658l.07-1.005,6.938.485.232-3.324.843.059-.303,4.329-7.78-.544Z" fill="#ed2024"/>
  <path d="M135.898,20.732c.345.306.771.728,1.247,1.317.586.724.847,1.39.817,1.972-.017.529-.28,1.048-.785,1.457-.513.416-1.04.591-1.566.543-.725-.053-1.447-.514-2.025-1.229-.178-.219-.333-.428-.427-.63l-2.272,1.84-.593-.732,5.603-4.538ZM133.757,23.679c.087.194.234.409.431.653.716.884,1.581,1.075,2.363.441.749-.606.681-1.429.027-2.237-.259-.32-.482-.543-.618-.642l-2.204,1.785Z" fill="#ed2024"/>
  <path d="M121.203,24.814c-1.709-1.833-1.502-3.843-.142-5.111,1.406-1.311,3.41-1.142,4.914.47,1.577,1.691,1.557,3.777.135,5.103-1.454,1.356-3.433,1.118-4.906-.462ZM125.255,20.874c-1.061-1.138-2.628-1.582-3.71-.572-1.09,1.017-.771,2.594.357,3.803.987,1.059,2.571,1.65,3.717.581,1.137-1.061.727-2.642-.364-3.812Z" fill="#ed2024"/>
  <path d="M32.786,33.895c-.225.294-.748.734-1.511,1.106-1.769.863-3.645.395-4.648-1.662-.958-1.964-.276-3.944,1.669-4.893.782-.381,1.357-.455,1.625-.447l.127.756c-.379.001-.871.103-1.393.357-1.47.717-1.989,2.134-1.186,3.781.749,1.536,2.115,2.091,3.641,1.347.493-.241.946-.588,1.195-.905l.481.561Z" fill="#ed2024"/>
  <path d="M56.773,37.879c.844.507,1.859,1.115,2.582,1.615l.018-.026c-.551-.661-1.115-1.395-1.723-2.234l-2.139-2.945.386-.572,3.422.932c1.011.278,1.924.553,2.728.856l.012-.018c-.717-.508-1.668-1.213-2.508-1.855l-2.401-1.847.486-.72,5.57,4.351-.649.962-3.5-.91c-.884-.243-1.66-.476-2.366-.738l-.018.026c.49.545.991,1.187,1.553,1.944l2.125,2.948-.649.962-6.091-3.578.497-.737,2.667,1.584Z" fill="#ed2024"/>
  <path d="M166.965,41.555l-2.695-3.211c-1.02-1.215-1.991-1.278-2.716-.67-.805.675-.874,1.639.132,2.838l2.695,3.211-.708.594-2.654-3.163c-1.398-1.666-1.095-3.087.081-4.073,1.111-.932,2.481-.999,3.893.684l2.681,3.195-.708.594Z" fill="#ed2024"/>
  <path d="M75.393,22.183l7.202-6.278.495,1.167-3.566,3.05c-.976.839-1.862,1.581-2.747,2.22l.011.025c1.068-.175,2.269-.275,3.519-.366l4.731-.339.49,1.153-9.63.559-.505-1.191Z" fill="#ed2024"/>
  <path d="M68.008,23.843c-.408,0-1.038-.07-1.665-.203-.895-.19-1.437-.467-1.794-.908-.303-.343-.432-.801-.316-1.345.142-.668.708-1.16,1.495-1.272l.004-.021c-.623-.304-1.278-1.013-1.059-2.041.127-.596.46-.998.881-1.263.577-.339,1.402-.379,2.533-.138.617.131,1.08.272,1.37.377l-1.448,6.814ZM67.716,20.817l-.812-.173c-.946-.201-1.605.174-1.747.842-.173.812.376,1.262,1.28,1.454.412.088.654.107.805.107l.474-2.23ZM68.422,17.497c-.168-.068-.423-.133-.741-.2-.926-.197-1.85-.039-2.065.969-.201.945.528,1.509,1.504,1.716l.74.157.561-2.642Z" fill="#ed2024"/>
  <path d="M39.158,13.831c.059-.418.221-1.052.448-1.674.323-.888.684-1.403,1.187-1.705.395-.261.881-.326,1.422-.13.663.241,1.085.891,1.086,1.712l.02.007c.401-.593,1.22-1.162,2.24-.79.592.215.955.614,1.166,1.083.264.639.186,1.489-.223,2.611-.223.612-.434,1.066-.583,1.348l-6.763-2.462ZM42.296,13.968l.293-.806c.342-.939.052-1.668-.61-1.909-.806-.293-1.345.204-1.672,1.101-.149.409-.204.654-.225.808l2.214.806ZM45.591,15.167c.094-.162.197-.414.312-.729.334-.919.306-1.888-.694-2.252-.938-.341-1.619.323-1.972,1.292l-.267.734,2.622.954Z" fill="#ed2024"/>
  <path d="M148.205,62.855l-2.285,6.727-.788-.512,1.212-3.367c.297-.831.61-1.651.868-2.275l-.017-.011c-.467.513-1.092,1.081-1.774,1.699l-2.663,2.413-.78-.507,1.201-3.387c.282-.791.574-1.577.883-2.241l-.017-.011c-.532.556-1.112,1.093-1.76,1.696l-2.655,2.418-.763-.495,5.387-4.712.78.507-1.225,3.481c-.299.853-.546,1.497-.847,2.13l.017.011c.476-.507.972-.989,1.67-1.595l2.776-2.474.78.507Z" fill="#ed2024"/>
  <path d="M136.815,30.234l-5.123,1.665c-1.939.63-2.481,1.758-2.106,2.913.417,1.284,1.532,1.83,3.445,1.209l5.123-1.665.367,1.13-5.046,1.64c-2.658.864-4.204-.182-4.813-2.056-.576-1.772.005-3.437,2.689-4.309l5.098-1.656.367,1.13Z" fill="#ed2024"/>
  <path d="M167.067,16.022h-.948s0-3.538,0-3.538h-.033c-.196.283-.392.544-.577.784l-2.243,2.754h-1.175s2.657-3.114,2.657-3.114l-2.863-4.224h1.121s2.416,3.603,2.416,3.603l.697-.805v-2.798s.948,0,.948,0v7.338Z" fill="#ed2024"/>
  <path d="M45.278,35.14l-2.184,3.635-.256,6.56-1.259-.756.214-3.09c.058-.847.118-1.521.21-2.279l-.026-.016c-.578.415-1.205.799-1.926,1.248l-2.654,1.624-1.259-.756,5.83-3.193,2.192-3.649,1.118.672Z" fill="#ed2024"/>
  <path d="M122.222,47.859l.146,2.794,2.591-.136-.163-3.114.778-.041.212,4.042-7.187.377-.203-3.882.778-.041.155,2.954,2.271-.119-.146-2.794.768-.04Z" fill="#ed2024"/>
  <path d="M170.545,60.226l-2.887.994-3.178,3.5-.344-1,1.548-1.605c.424-.44.769-.784,1.17-1.16l-.007-.021c-.511-.038-1.034-.117-1.64-.203l-2.216-.332-.344-1,4.693.937,2.898-.998.306.888Z" fill="#ed2024"/>
  <path d="M59.334,13.064l-4.859.425c-1.839.161-2.547,1.045-2.451,2.141.107,1.218.978,1.927,2.793,1.768l4.859-.425.094,1.072-4.786.419c-2.521.221-3.672-1.017-3.828-2.795-.147-1.681.704-3.031,3.25-3.254l4.835-.423.094,1.072Z" fill="#ed2024"/>
  <path d="M98.102,35.839l3.164-2.75c1.197-1.041,1.243-2.013.623-2.727-.689-.793-1.654-.845-2.835.182l-3.164,2.75-.607-.698,3.116-2.709c1.641-1.427,3.067-1.148,4.073.01.951,1.094,1.042,2.463-.616,3.904l-3.148,2.737-.607-.698Z" fill="#ed2024"/>
  <path d="M158.984,52.258l.463,1.273-6.598,2.402c-2.618.953-3.892-.042-4.51-1.739-.17-.468-.276-1.076-.261-1.446l1.108-.187c-.007.301.044.713.198,1.137.415,1.141,1.173,1.628,3.104.925l6.496-2.364Z" fill="#ed2024"/>
  <path d="M149.203,20.407l-4.087-4.502.71-.378,2.018,2.304c.499.567.983,1.142,1.343,1.594l.015-.008c-.19-.563-.356-1.266-.536-2.033l-.701-2.994.703-.374,2.037,2.304c.475.539.942,1.084,1.311,1.591l.015-.008c-.196-.629-.356-1.286-.539-2.021l-.709-2.99.687-.365,1.292,5.988-.703.374-2.097-2.361c-.515-.578-.894-1.03-1.243-1.518l-.015.008c.182.567.337,1.138.501,1.912l.7,3.104-.703.374Z" fill="#ed2024"/>
  <path d="M95.142,67.566c.012-.549.093-1.611.525-2.737.484-1.261,1.205-2.177,2.297-2.694.969-.452,2.252-.47,3.551.028,2.482.966,3.645,3.372,2.571,6.168-.37.965-.87,1.638-1.181,1.931l-.779-.597c.369-.369.743-.865,1.066-1.705.779-2.028.025-3.836-2.065-4.639-2.116-.812-3.854-.017-4.599,1.924-.271.705-.357,1.225-.328,1.521l2.486.954.651-1.695.866.332-1.054,2.747-4.008-1.538Z" fill="#ed2024"/>
  <path d="M177.898,27.484l.875-.267,1.386,4.532c.55,1.798-.166,2.621-1.332,2.978-.322.098-.735.148-.983.125l-.087-.753c.202.015.482-.004.773-.093.784-.24,1.139-.733.733-2.059l-1.364-4.461Z" fill="#ed2024"/>
  <path d="M129.682,48.425l6.849-3.352.141,1.002-3.379,1.615c-.926.445-1.762.834-2.576,1.144l.003.022c.859.085,1.806.256,2.788.445l3.717.716.139.99-7.539-1.558-.144-1.022Z" fill="#ed2024"/>
  <path d="M36.575,62.051l1.741,6.983-.985.245-3.119-2.975c-.722-.689-1.31-1.324-1.819-1.956l-.018.016c.315.912.547,1.756.819,2.845l.728,2.922-.85.212-1.741-6.983.912-.227,3.101,2.991c.681.656,1.346,1.337,1.887,2.006l.029-.018c-.272-.867-.501-1.702-.791-2.862l-.744-2.984.85-.212Z" fill="#ed2024"/>
  <path d="M172.238,22.834l-1.916-4.514.908-.385,1.456,3.431,2.785-1.182-1.346-3.171.895-.38,1.346,3.171,3.793-1.61.459,1.082-8.381,3.557Z" fill="#ed2024"/>
  <path d="M127.74,65.501l-2.342.443-.466-.84,7.48-1.351.544.981-5.104,5.638-.482-.869,1.607-1.77-1.237-2.232ZM129.519,67.213l1.471-1.621c.333-.368.655-.668.967-.964l-.011-.019c-.426.114-.865.223-1.315.315l-2.163.393,1.051,1.896Z" fill="#ed2024"/>
  <path d="M58.753,45.35c.165.42.349.978.503,1.703.19.892.121,1.589-.164,2.084-.25.454-.71.79-1.332.922-.632.134-1.17.054-1.608-.222-.609-.368-1.034-1.091-1.221-1.972-.057-.27-.1-.521-.092-.739l-2.799.595-.192-.902,6.905-1.468ZM55.575,46.968c-.01.208.022.461.086.762.231,1.089.901,1.64,1.866,1.435.923-.196,1.23-.944,1.018-1.94-.084-.394-.179-.688-.253-.835l-2.716.577Z" fill="#ed2024"/>
  <path d="M73.023,57.145l-.193.909-6.278-1.334-.639,3.008-.762-.162.833-3.917,7.04,1.496Z" fill="#ed2024"/>
  <path d="M75.972,64.503l.533-.761,2.843,1.991.018-.026c-.117-.317-.217-.621-.305-.905l-.951-3.352.661-.944,1.007,3.886,5.005.076-.631.901-4.255-.086.255,1.013,2.248,1.574-.533.761-5.896-4.128Z" fill="#ed2024"/>
  <path d="M161.55,25.34c-.094-1.073-.208-2.364-.231-3.325h-.034c-.231.914-.518,1.886-.869,2.964l-1.231,3.789-.755.026-1.376-3.629c-.404-1.074-.748-2.058-.997-2.966h-.023c.011.962-.001,2.257-.029,3.415l-.09,3.314-.95.033.269-7.729,1.27-.044,1.446,3.683c.354.938.646,1.776.869,2.57h.034c.168-.786.413-1.642.722-2.627l1.243-3.777,1.27-.044.75,7.694-.973.034-.313-3.38Z" fill="#ed2024"/>
  <path d="M75.457,28.849c.286.235.707.773,1.052,1.549.8,1.798.267,3.656-1.823,4.587-1.996.889-3.951.138-4.832-1.839-.354-.795-.407-1.372-.39-1.64l.76-.1c-.012.379.072.874.308,1.404.665,1.494,2.063,2.063,3.738,1.317,1.561-.695,2.164-2.041,1.473-3.592-.223-.501-.555-.966-.863-1.225l.577-.461Z" fill="#ed2024"/>
  <path d="M146.347,33.268c-1.033,1.277-2.274,2.813-3.268,3.891l.039.035c1.22-.756,2.564-1.518,4.091-2.328l5.362-2.851.855.77-2.335,5.436c-.694,1.606-1.36,3.05-2.048,4.309l.026.024c1.006-1.066,2.391-2.473,3.647-3.713l3.608-3.538,1.077.97-8.481,8.192-1.439-1.296,2.316-5.57c.606-1.404,1.173-2.632,1.769-3.738l-.039-.035c-1.015.683-2.19,1.362-3.572,2.115l-5.363,2.826-1.439-1.296,7.326-9.232,1.102.993-3.236,4.038Z" fill="#ed2024"/>
  <path d="M46.198,26.488l7.914,1.395-.18,1.022-7.914-1.395.18-1.022Z" fill="#ed2024"/>
  <path d="M113.932,61.1l3.934,1.432,1.328-3.648-4.383-1.595.399-1.096,5.69,2.071-3.683,10.118-5.465-1.989.399-1.096,4.158,1.514,1.164-3.198-3.934-1.432.393-1.081Z" fill="#ed2024"/>
  <path d="M107.457,50.574l-.438-2.764-2.563.406.488,3.08-.77.122-.633-3.998,7.109-1.126.608,3.84-.77.122-.463-2.922-2.247.356.438,2.764-.759.12Z" fill="#ed2024"/>
  <path d="M172.167,47.26l.489,3.481,3.229-.454-.545-3.879.97-.136.708,5.036-8.955,1.259-.68-4.837.97-.136.517,3.68,2.83-.398-.489-3.481.956-.134Z" fill="#ed2024"/>
  <path d="M111.111,17.365c-.899-.4-1.981-.881-2.76-1.288l-.014.028c.627.589,1.277,1.249,1.983,2.007l2.482,2.662-.313.615-3.51-.508c-1.037-.153-1.977-.314-2.812-.517l-.01.019c.774.417,1.803,1.001,2.716,1.536l2.608,1.54-.394.774-6.058-3.639.527-1.034,3.584.477c.907.133,1.706.271,2.439.444l.014-.028c-.553-.481-1.129-1.057-1.779-1.74l-2.468-2.667.527-1.034,6.481,2.809-.404.792-2.84-1.247Z" fill="#ed2024"/>
  <path d="M123.631,18.441l-2.849,7.079-.775-.651,1.432-3.464c.391-.951.752-1.8,1.15-2.576l-.017-.014c-.696.512-1.515,1.019-2.372,1.537l-3.244,1.957-.767-.643,6.65-3.89.792.664Z" fill="#ed2024"/>
  <path d="M91.839,41.756c-.39.287-.811.767-1.049,1.355-.352.872-.098,1.568.569,1.837.617.249,1.113.038,1.816-.714.818-.924,1.646-1.364,2.576-.988,1.029.416,1.449,1.577.93,2.861-.273.676-.628,1.103-.913,1.33l-.601-.517c.205-.168.579-.53.82-1.128.364-.902-.036-1.462-.487-1.644-.617-.249-1.083.029-1.804.798-.883.943-1.652,1.294-2.622.902-1.019-.412-1.596-1.523-.966-3.081.257-.637.725-1.257,1.103-1.515l.628.504Z" fill="#ed2024"/>
  <path d="M115.487,42.902c-.728-.161-1.714-.509-2.623-.914-1.409-.627-2.202-1.289-2.582-2.147-.313-.684-.29-1.508.06-2.295.6-1.347,1.846-1.863,3.083-1.748l.02-.045c-.666-.624-.812-1.56-.582-2.727.301-1.572.496-2.663.459-3.152l1.362.607c.039.363-.124,1.341-.404,2.741-.324,1.543-.015,2.316,1.161,2.893l1.241.553,1.968-4.421,1.318.587-4.483,10.069ZM116.239,37.667l-1.347-.6c-1.408-.627-2.646-.252-3.165.913-.586,1.317.111,2.318,1.498,2.953.636.283,1.117.425,1.356.459l1.658-3.725Z" fill="#ed2024"/>
  <path d="M100.759,22.542c-.727.413-1.61.852-2.614,1.237-1.82.699-3.277.774-4.442.303-1.181-.465-2.126-1.405-2.735-2.991-.615-1.601-.622-3.101-.052-4.355.565-1.269,1.889-2.344,3.795-3.076.903-.347,1.676-.594,2.345-.767l3.704,9.648ZM96.163,14.355c-.342.065-.814.229-1.309.419-2.706,1.039-3.595,3.116-2.578,5.765.873,2.32,2.747,3.286,5.424,2.259.655-.252,1.128-.5,1.434-.701l-2.972-7.742Z" fill="#ed2024"/>
  <path d="M35.934,18.02c.434.178,1.257.568,2.023,1.258.858.773,1.368,1.628,1.446,2.658.064.911-.315,1.942-1.111,2.825-1.532,1.684-3.807,1.876-5.71.163-.657-.591-1.041-1.197-1.179-1.534l.715-.438c.182.407.462.858,1.034,1.373,1.38,1.243,3.054,1.195,4.334-.227,1.296-1.44,1.194-3.07-.127-4.26-.48-.432-.868-.66-1.113-.728l-1.523,1.692,1.153,1.039-.53.589-1.869-1.683,2.455-2.727Z" fill="#ed2024"/>
  <path d="M84.404,38.008l-3.467-7.034,1.015-.216,1.682,3.574c.417.88.813,1.765,1.098,2.454l.022-.005c-.036-.765.008-1.696.058-2.711l.195-3.962,1.004-.213,1.707,3.581c.397.838.783,1.678,1.06,2.438l.022-.005c-.019-.849.015-1.721.05-2.698l.185-3.959.982-.209-.527,7.883-1.004.213-1.761-3.673c-.432-.899-.742-1.595-1.001-2.324l-.022.005c.024.767.014,1.531-.058,2.549l-.236,4.097-1.004.213Z" fill="#ed2024"/>
  <path d="M46.543,56.817l8.404,8.512.053.01,1.178-6.061,1.294.252-1.567,8.062-.939-.183-8.376-8.468-.052-.01-1.298,6.68-1.294-.252,1.695-8.718.903.176Z" fill="#ed2024"/>
  <path d="M27.215,51.14l9.834,2.635-.34,1.27-9.834-2.635.34-1.27Z" fill="#ed2024"/>
  <path d="M92.962,56.643l-2.94,1.07-3.193,3.643-.371-1.018,1.558-1.673c.427-.459.774-.817,1.178-1.209l-.008-.021c-.524-.03-1.062-.102-1.684-.179l-2.276-.301-.371-1.018,4.825.876,2.951-1.074.329.904Z" fill="#ed2024"/>
  <path d="M81.94,48.401l-4.819-2.046c-1.824-.774-2.941-.293-3.402.794-.513,1.208-.044,2.319,1.756,3.083l4.819,2.046-.451,1.063-4.747-2.015c-2.5-1.061-2.968-2.814-2.219-4.578.708-1.667,2.195-2.518,4.72-1.446l4.795,2.035-.451,1.063Z" fill="#ed2024"/>
  <path d="M136.52,11.256c.494.109,1.34.503,2.242,1.233,2.089,1.692,2.593,4.284.625,6.714-1.878,2.32-4.723,2.619-7.021.758-.924-.748-1.346-1.418-1.492-1.754l.863-.593c.22.469.63,1.019,1.246,1.518,1.737,1.406,3.79,1.231,5.366-.715,1.469-1.814,1.368-3.825-.435-5.285-.583-.472-1.274-.831-1.81-.956l.417-.919Z" fill="#ed2024"/>
  <path d="M180.216,64.663c.059.451.103,1.042.076,1.789-.032.919-.269,1.584-.669,1.999-.356.383-.887.599-1.528.577-.651-.023-1.157-.233-1.519-.609-.506-.509-.745-1.32-.713-2.227.01-.278.029-.535.09-.746l-2.884-.101.032-.93,7.114.248ZM176.712,65.472c-.061.201-.091.457-.102.766-.039,1.122.482,1.825,1.475,1.859.951.033,1.433-.624,1.469-1.649.014-.406-.007-.717-.044-.878l-2.798-.098Z" fill="#ed2024"/>
  <path d="M77.062,24.843l-.127-.906,4.693-.66c1.862-.262,2.563.574,2.733,1.781.047.333.031.749-.031.991l-.758-.032c.047-.197.071-.477.029-.778-.114-.812-.546-1.239-1.919-1.046l-4.62.649Z" fill="#ed2024"/>
  <path d="M119.695,61.841c.374.042,1.031.268,1.754.738,1.677,1.089,2.251,2.968.985,4.918-1.209,1.862-3.291,2.305-5.135,1.107-.742-.482-1.106-.944-1.24-1.182l.592-.506c.2.33.545.705,1.04,1.026,1.394.905,2.9.616,3.914-.946.946-1.456.715-2.936-.733-3.876-.468-.304-1.007-.516-1.414-.567l.237-.712Z" fill="#ed2024"/>
  <path d="M31.667,34.395l-2.138-.952.344-.772,5.206,2.318-.344.772-2.15-.957-2.787,6.26-.918-.409,2.787-6.26Z" fill="#ed2024"/>
  <path d="M25.353,52.71c.467-.095,1.134-.148,1.77-.148.987,0,1.622.18,2.067.583.361.318.562.806.562,1.357,0,.943-.594,1.569-1.346,1.823v.032c.552.191.88.7,1.05,1.442.233.996.403,1.685.552,1.961h-.954c-.117-.202-.276-.816-.477-1.707-.212-.986-.594-1.357-1.431-1.388h-.869v3.095h-.923v-7.049ZM26.276,55.965h.943c.986,0,1.611-.541,1.611-1.357,0-.922-.668-1.325-1.643-1.336-.445,0-.763.042-.911.085v2.608Z" fill="#ed2024"/>
  <path d="M163.68,30.233l-2.196-.27.097-.793,5.346.656-.097.793-2.207-.271-.789,6.428-.943-.116.789-6.428Z" fill="#ed2024"/>
  <path d="M76.188,37.081l6.355,3.379-.436.821-6.355-3.379.436-.821Z" fill="#ed2024"/>
  <path d="M46.311,14.059l-1.094-1.895.684-.395,2.664,4.614-.684.395-1.1-1.905-5.549,3.203-.47-.814,5.549-3.203Z" fill="#ed2024"/>
  <path d="M74.545,45.647c-.053.558-.223,1.326-.442,2.042-.339,1.109-.76,1.762-1.366,2.124-.482.296-1.099.355-1.719.165-1.061-.324-1.56-1.207-1.588-2.141l-.035-.011c-.405.555-1.09.749-1.982.685-1.201-.081-2.034-.126-2.395-.054l.328-1.073c.267-.063,1.013-.03,2.084.05,1.181.1,1.73-.201,2.053-1.132l.299-.977-3.481-1.064.317-1.038,7.927,2.424ZM70.568,45.566l-.324,1.061c-.339,1.108.054,1.998.972,2.279,1.037.317,1.72-.296,2.067-1.389.153-.501.215-.873.218-1.054l-2.933-.897Z" fill="#ed2024"/>
  <path d="M144.419,33.976l-1.652,1.436-.519-.597,4.021-3.496.519.597-1.66,1.443,4.203,4.835-.709.617-4.203-4.835Z" fill="#ed2024"/>
  <path d="M157.969,15.34l2.365.679c.926.239,1.52.4,2.123.593l.021-.02c-.192-.59-.355-1.148-.58-2.103l-.637-2.328,1.029-.993,1.268,5.555,5.346,1.459-1.04,1.004-2.486-.742c-.694-.204-1.227-.366-1.77-.557l-.031.03c.202.6.335,1.088.505,1.779l.624,2.54-1.029.993-1.151-5.411-5.597-1.473,1.04-1.004Z" fill="#ed2024"/>
  <path d="M52.934,35.809c-.175.386-.645,1.01-1.4,1.622-1.75,1.417-3.961,1.378-5.608-.657-1.573-1.943-1.323-4.325.602-5.883.774-.626,1.396-.856,1.697-.917l.336.81c-.423.099-.945.339-1.46.756-1.454,1.178-1.668,2.891-.349,4.52,1.23,1.519,2.895,1.787,4.405.564.488-.395.903-.899,1.099-1.317l.68.501Z" fill="#ed2024"/>
  <path d="M109.691,60.151l1.903,5.775-.803.056-.906-2.926c-.225-.721-.434-1.443-.578-2.002h-.017c-.055.592-.189,1.303-.337,2.076l-.577,3.021-.794.056-.924-2.934c-.214-.686-.42-1.373-.551-1.986h-.017c-.077.655-.197,1.321-.329,2.067l-.569,3.02-.776.054,1.255-5.996.794-.056.956,3.01c.235.737.397,1.304.518,1.892h.017c.064-.593.155-1.178.32-1.952l.623-3.121.794-.056Z" fill="#ed2024"/>
  <path d="M152.402,63.738l-2.633-1.284-1.191,2.442,2.934,1.431-.358.733-3.808-1.857,3.303-6.772,3.658,1.784-.358.733-2.783-1.357-1.044,2.14,2.633,1.284-.353.723Z" fill="#ed2024"/>
  <path d="M84.548,17.398l.469-2.03c.161-.794.271-1.303.407-1.822l-.018-.017c-.49.189-.956.351-1.753.584l-1.941.642-.886-.826,4.642-1.319.997-4.586.895.835-.517,2.135c-.142.596-.255,1.054-.393,1.522l.027.025c.498-.197.905-.332,1.482-.506l2.121-.64.886.826-4.526,1.213-.998,4.8-.895-.835Z" fill="#ed2024"/>
  <path d="M95.808,67.221c.374-.607.685-1.494.685-2.428,0-1.385-.731-2.195-1.79-2.195-.98,0-1.54.561-2.085,1.977-.607,1.712-1.494,2.77-2.972,2.77-1.634,0-2.848-1.353-2.848-3.392,0-1.073.249-1.853.513-2.319l1.105.374c-.187.342-.498,1.043-.498,1.992,0,1.432.856,1.976,1.572,1.976.98,0,1.463-.637,2.023-2.084.685-1.774,1.541-2.678,3.082-2.678,1.618,0,3.019,1.199,3.019,3.674,0,1.011-.296,2.116-.67,2.676l-1.136-.342Z" fill="#ed2024"/>
  <path d="M183.141,17.183l-.139,1.136-7.844-.963-.462,3.759-.953-.117.601-4.895,8.797,1.08Z" fill="#ed2024"/>
  <path d="M156.47,30.761c-.443.084-1.311.2-2.291.045-1.097-.174-1.957-.597-2.559-1.387-.529-.702-.763-1.731-.584-2.861.353-2.161,2.088-3.507,4.52-3.122.839.133,1.466.42,1.754.62l-.347.728c-.36-.233-.822-.45-1.554-.566-1.764-.279-3.089.635-3.377,2.454-.291,1.84.645,3.102,2.334,3.369.613.097,1.046.078,1.279.004l.343-2.162-1.474-.234.119-.753,2.389.378-.552,3.486Z" fill="#ed2024"/>
  <path d="M126.523,52.141l-3.211,2.695c-1.215,1.02-1.278,1.991-.67,2.716.675.805,1.639.874,2.838-.132l3.211-2.695.594.708-3.163,2.654c-1.666,1.398-3.087,1.095-4.073-.081-.932-1.111-.999-2.481.684-3.893l3.195-2.681.594.708Z" fill="#ed2024"/>
  <path d="M112.414,18.09c.975,1.293,2.149,2.848,2.944,4.056l.043-.029c-.433-1.348-.841-2.817-1.252-4.471l-1.449-5.813.941-.635,4.646,3.532c1.371,1.048,2.594,2.029,3.635,2.988l.029-.02c-.781-1.218-1.797-2.879-2.684-4.377l-2.525-4.298,1.185-.8,5.817,10.072-1.584,1.068-4.779-3.546c-1.199-.915-2.239-1.75-3.156-2.585l-.043.029c.412,1.134.781,2.422,1.172,3.923l1.425,5.808-1.584,1.068-7.088-9.215,1.213-.818,3.093,4.061Z" fill="#ed2024"/>
  <path d="M167.75,39.714l3.568-1.515.305.718-2.712,1.151.935,2.202,2.507-1.064.3.708-2.507,1.064,1.273,2.998-.856.363-2.812-6.625Z" fill="#ed2024"/>
  <path d="M182.345,50.924l.481-2.264.818.174-1.172,5.513-.818-.174.484-2.276-6.628-1.409.207-.972,6.628,1.409Z" fill="#ed2024"/>
  <path d="M135.487,57.225l3.042-.266,3.93-2.627.092,1.053-1.891,1.183c-.518.325-.936.575-1.416.842l.002.022c.486.161.975.364,1.542.594l2.069.858.092,1.053-4.327-2.044-3.053.267-.082-.935Z" fill="#ed2024"/>
  <path d="M180.424,70.15l-4.393-.696.14-.883,3.34.529.429-2.711-3.086-.489.138-.871,3.086.489.585-3.691,1.053.167-1.292,8.157Z" fill="#ed2024"/>
  <path d="M41.251,62.753l-7.709-.393.367-.956,3.784.229c1.038.06,1.969.126,2.842.251l.008-.021c-.719-.497-1.473-1.113-2.251-1.762l-2.94-2.458.363-.945,5.91,5.079-.375.976Z" fill="#ed2024"/>
  <path d="M94.58,14.484l9.19-.321.041,1.187-9.19.321-.041-1.187Z" fill="#ed2024"/>
  <path d="M159.508,54.896l8.682,1.066-.15,1.224-4.735,2.243c-1.097.519-2.073.909-3.012,1.212l.01.027c1.172.04,2.231.144,3.584.31l3.632.446-.13,1.056-8.682-1.066.139-1.134,4.744-2.216c1.041-.487,2.104-.945,3.098-1.268l-.008-.04c-1.103-.069-2.149-.172-3.592-.349l-3.71-.456.13-1.056Z" fill="#ed2024"/>
  <path d="M176.12,33.606c.245,1.058.54,2.331.697,3.288l.034-.006c.103-.944.253-1.955.452-3.081l.698-3.956.75-.132,1.883,3.431c.554,1.016,1.036,1.951,1.412,2.822l.023-.004c-.146-.959-.315-2.254-.45-3.414l-.375-3.322.944-.166.816,7.757-1.262.222-1.961-3.476c-.485-.888-.894-1.683-1.228-2.445l-.034.006c-.057.807-.182,1.697-.352,2.723l-.711,3.947-1.262.222-1.829-7.578.966-.17.787,3.331Z" fill="#ed2024"/>
  <path d="M105.492,56.796c-.605-.047-1.315-.141-2.076-.317-1.379-.318-2.287-.865-2.797-1.621-.522-.759-.709-1.709-.432-2.91.28-1.213.884-2.119,1.736-2.642.855-.534,2.088-.644,3.533-.311.684.158,1.249.323,1.722.49l-1.688,7.311ZM106.049,50.002c-.232-.1-.583-.193-.958-.279-2.051-.473-3.429.416-3.892,2.423-.416,1.75.319,3.093,2.348,3.562.497.115.882.157,1.148.161l1.354-5.866Z" fill="#ed2024"/>
  <path d="M33.917,28.143l.447-.84,5.802,3.085,1.478-2.78.705.375-1.925,3.621-6.507-3.46Z" fill="#ed2024"/>
  <path d="M97.659,42.183c-.488.448-1.244.988-2.002,1.443-1.175.706-2.06.946-2.879.785-.657-.121-1.246-.557-1.64-1.214-.675-1.123-.415-2.293.299-3.135l-.023-.038c-.794.167-1.549-.204-2.281-.966-.99-1.02-1.686-1.718-2.06-1.941l1.136-.682c.284.156.913.774,1.79,1.691.958,1.022,1.678,1.191,2.697.629l1.035-.622-2.215-3.686,1.099-.66,5.044,8.394ZM94.231,38.967l-1.123.675c-1.174.705-1.532,1.797-.948,2.769.66,1.098,1.744,1.1,2.913.415.53-.319.878-.596,1.025-.753l-1.866-3.105Z" fill="#ed2024"/>
  <path d="M137.588,23.422l1.886,2.596,3.001-2.181-1.886-2.596.81-.588,4.508,6.205-.81.588-2.114-2.909-3.001,2.181,2.114,2.909-.801.582-4.508-6.205.801-.582Z" fill="#ed2024"/>
  <path d="M46.225,45.005l-.177.912-6.3-1.225-.587,3.019-.765-.149.764-3.931,7.065,1.373Z" fill="#ed2024"/>
  <path d="M84.882,54.011l-3.805.74-.149-.765,2.893-.562-.456-2.348-2.673.52-.147-.755,2.673-.52-.621-3.197.912-.177,1.373,7.065Z" fill="#ed2024"/>
  <path d="M62.503,59.193l-.203,5.823-1.171-.041.155-4.427-3.593-.125-.143,4.091-1.155-.04.143-4.091-4.893-.171.049-1.396,10.812.378Z" fill="#ed2024"/>
  <path d="M51.51,19.471l6.63-4.831.336,1.035-3.278,2.342c-.898.644-1.711,1.213-2.515,1.693l.007.022c.926-.07,1.961-.066,3.038-.05l4.072.064.332,1.023-8.279-.242-.343-1.056Z" fill="#ed2024"/>
  <path d="M129.589,18.706c2.397-.084,3.719,1.329,3.782,3.107.064,1.84-1.317,3.181-3.425,3.255-2.212.077-3.707-1.247-3.771-3.107-.066-1.902,1.348-3.182,3.415-3.254ZM129.891,24.107c1.488-.052,2.793-.905,2.744-2.321-.05-1.426-1.39-2.186-2.971-2.131-1.385.048-2.806.822-2.754,2.32.052,1.488,1.452,2.185,2.982,2.131Z" fill="#ed2024"/>
  <path d="M152.089,14.102c.158-1.131.349-2.493.555-3.491l-.036-.007c-.457.888-.985,1.824-1.605,2.855l-2.177,3.622-.786-.153-.556-4.079c-.161-1.206-.282-2.306-.323-3.303l-.024-.005c-.218.997-.54,2.332-.845,3.522l-.884,3.403-.99-.192,2.122-7.924,1.323.257.615,4.152c.142,1.054.244,1.99.284,2.863l.036.007c.36-.771.818-1.597,1.372-2.541l2.186-3.607,1.323.257-1.061,8.131-1.013-.197.483-3.568Z" fill="#ed2024"/>
  <path d="M124.784,42.046c-.56.978-1.147,1.923-1.701,2.741-.101.146-.203.293-.243.442-.565,1.831-2.353,3.049-4.862,2.377s-3.694-2.625-3.131-4.729c.567-2.116,2.577-3.051,4.877-2.435,2,.536,3.035,1.804,3.139,3.22l.046.012c.404-.722.815-1.517,1.108-2.144l.766.515ZM119.486,41.519c-1.56-.418-3.384-.039-3.827,1.614-.455,1.7.893,2.953,2.584,3.394,1.65.454,3.386-.059,3.807-1.631.431-1.608-.784-2.899-2.564-3.376Z" fill="#ed2024"/>
  <path d="M133.695,45.628l3.809,2.199c1.442.832,2.422.545,2.918-.314.551-.955.274-1.929-1.149-2.751l-3.809-2.199.485-.84,3.752,2.166c1.976,1.141,2.187,2.65,1.382,4.044-.761,1.318-2.088,1.875-4.083.723l-3.79-2.188.485-.84Z" fill="#ed2024"/>
  <path d="M104.285,36.459c-.639-1.015-1.234-2.039-1.726-2.968-.087-.168-.174-.337-.295-.449-1.439-1.446-1.69-3.736.195-5.757s4.314-2.16,6.009-.579c1.705,1.59,1.58,3.947-.149,5.8-1.503,1.612-3.212,1.951-4.595,1.341l-.035.037c.476.741,1.018,1.524,1.462,2.113l-.867.463ZM107.428,31.744c1.173-1.258,1.728-3.161.396-4.403-1.37-1.278-3.222-.636-4.481.733-1.252,1.324-1.636,3.212-.369,4.393,1.296,1.208,3.117.712,4.455-.722Z" fill="#ed2024"/>
  <path d="M63.522,32.821l7.689-4.553.017-.037-4.18-1.949.416-.893,5.56,2.593-.302.648-7.652,4.541-.017.036,4.607,2.148-.416.893-6.013-2.804.29-.623Z" fill="#ed2024"/>
  <path d="M81.209,59.669l-.28,1.045-3.901-1.045-.01.036c.254.3.484.593.694.868l2.374,3.286-.347,1.296-2.648-3.848-5.502,1.909.331-1.236,4.686-1.599-.682-1.006-3.085-.827.28-1.045,8.089,2.167Z" fill="#ed2024"/>
  <path d="M31.647,22.273l1.628-5.678c.616-2.149-.076-3.333-1.357-3.7-1.423-.408-2.603.27-3.211,2.39l-1.628,5.678-1.253-.359,1.604-5.592c.845-2.945,2.743-3.71,4.82-3.114,1.964.563,3.121,2.111,2.268,5.086l-1.62,5.649-1.253-.359Z" fill="#ed2024"/>
  <path d="M66.722,17.83c.355-.464.804-.988,1.345-1.511.981-.947,1.898-1.394,2.777-1.409.887-.023,1.752.323,2.578,1.178.833.863,1.248,1.826,1.224,2.789-.017.971-.575,2.025-1.603,3.017-.487.47-.916.84-1.3,1.134l-5.021-5.199ZM71.918,21.845c.203-.135.461-.37.728-.627,1.458-1.408,1.463-2.988.084-4.416-1.196-1.255-2.667-1.365-4.109.028-.353.341-.59.63-.732.843l4.029,4.172Z" fill="#ed2024"/>
  <path d="M58.453,46.665c-.266-1.25-.587-2.753-.752-3.881l-.04.006c-.14,1.108-.337,2.294-.595,3.614l-.902,4.639-.885.14-2.144-4.074c-.631-1.206-1.178-2.315-1.603-3.348l-.027.004c.152,1.131.325,2.657.459,4.024l.373,3.915-1.114.176-.801-9.14,1.489-.236,2.234,4.128c.552,1.054,1.017,1.998,1.394,2.9l.04-.006c.084-.948.249-1.992.47-3.196l.917-4.627,1.489-.236,1.995,8.95-1.14.181-.857-3.934Z" fill="#ed2024"/>
  <path d="M90.68,29.393l-.567-7.952,1.026.256.242,3.908c.069,1.072.118,2.034.1,2.945l.022.006c.419-.8.956-1.65,1.523-2.529l2.15-3.323,1.015.253-4.463,6.698-1.047-.261Z" fill="#ed2024"/>
  <path d="M118.932,32.252c-.907-2.491.126-4.362,1.973-5.035,1.911-.696,3.792.297,4.59,2.488.836,2.298-.045,4.321-1.977,5.024-1.976.719-3.804-.33-4.586-2.477ZM124.504,30.09c-.563-1.546-1.904-2.626-3.376-2.091-1.482.539-1.822,2.207-1.224,3.85.524,1.439,1.822,2.669,3.379,2.102,1.546-.563,1.8-2.272,1.221-3.861Z" fill="#ed2024"/>
  <path d="M157.761,52.418l-1.332.485-1.81-4.974-.046.017c-.13.498-.272.966-.41,1.397l-1.744,5.019-1.652.601,2.142-5.736-6.186-4.473,1.576-.574,5.241,3.829.567-1.489-1.432-3.933,1.332-.485,3.754,10.315Z" fill="#ed2024"/>
</svg>